<mxfile host="app.diagrams.net" agent="Mozilla/5.0 (Windows NT 10.0; Win64; x64) AppleWebKit/537.36 (KHTML, like Gecko) Chrome/134.0.0.0 Safari/537.36" version="26.2.9">
  <diagram id="C5RBs43oDa-KdzZeNtuy" name="Page-1">
    <mxGraphModel dx="860" dy="1110" grid="1" gridSize="10" guides="1" tooltips="1" connect="1" arrows="1" fold="1" page="1" pageScale="1" pageWidth="827" pageHeight="1169" math="0" shadow="0">
      <root>
        <mxCell id="WIyWlLk6GJQsqaUBKTNV-0" />
        <mxCell id="WIyWlLk6GJQsqaUBKTNV-1" parent="WIyWlLk6GJQsqaUBKTNV-0" />
        <mxCell id="EppPzP2HpiySFacWkmX8-12" style="edgeStyle=orthogonalEdgeStyle;rounded=0;orthogonalLoop=1;jettySize=auto;html=1;exitX=0.5;exitY=0;exitDx=0;exitDy=0;entryX=0;entryY=0.5;entryDx=0;entryDy=0;endArrow=block;endFill=0;" edge="1" parent="WIyWlLk6GJQsqaUBKTNV-1" target="EppPzP2HpiySFacWkmX8-11">
          <mxGeometry relative="1" as="geometry">
            <mxPoint x="230" y="490.0000000000001" as="targetPoint" />
            <mxPoint x="205" y="530" as="sourcePoint" />
          </mxGeometry>
        </mxCell>
        <mxCell id="EppPzP2HpiySFacWkmX8-8" value="MessagePasser" style="swimlane;fontStyle=1;align=center;verticalAlign=top;childLayout=stackLayout;horizontal=1;startSize=26;horizontalStack=0;resizeParent=1;resizeParentMax=0;resizeLast=0;collapsible=1;marginBottom=0;whiteSpace=wrap;html=1;" vertex="1" parent="WIyWlLk6GJQsqaUBKTNV-1">
          <mxGeometry x="80" y="220" width="350" height="180" as="geometry" />
        </mxCell>
        <mxCell id="EppPzP2HpiySFacWkmX8-9" value="- MESSAGE_MAX_SIZE: int&lt;div&gt;- socket: DatagramSocket&lt;/div&gt;" style="text;strokeColor=none;fillColor=none;align=left;verticalAlign=top;spacingLeft=4;spacingRight=4;overflow=hidden;rotatable=0;points=[[0,0.5],[1,0.5]];portConstraint=eastwest;whiteSpace=wrap;html=1;" vertex="1" parent="EppPzP2HpiySFacWkmX8-8">
          <mxGeometry y="26" width="350" height="34" as="geometry" />
        </mxCell>
        <mxCell id="EppPzP2HpiySFacWkmX8-10" value="" style="line;strokeWidth=1;fillColor=none;align=left;verticalAlign=middle;spacingTop=-1;spacingLeft=3;spacingRight=3;rotatable=0;labelPosition=right;points=[];portConstraint=eastwest;strokeColor=inherit;" vertex="1" parent="EppPzP2HpiySFacWkmX8-8">
          <mxGeometry y="60" width="350" height="8" as="geometry" />
        </mxCell>
        <mxCell id="EppPzP2HpiySFacWkmX8-11" value="&lt;div&gt;+ MessagePasser(port: int)&lt;/div&gt;+ send(msg: Object, addressStr: String, port: int): void&lt;div&gt;+ receive(timeout: int): Object&lt;/div&gt;&lt;div&gt;- deserialize(byte[], int) : Object&lt;/div&gt;&lt;div&gt;+ receive(): Object&lt;/div&gt;&lt;div&gt;+ serialize(Object) : byte[]&lt;/div&gt;&lt;div&gt;&lt;br&gt;&lt;/div&gt;" style="text;strokeColor=none;fillColor=none;align=left;verticalAlign=top;spacingLeft=4;spacingRight=4;overflow=hidden;rotatable=0;points=[[0,0.5],[1,0.5]];portConstraint=eastwest;whiteSpace=wrap;html=1;" vertex="1" parent="EppPzP2HpiySFacWkmX8-8">
          <mxGeometry y="68" width="350" height="112" as="geometry" />
        </mxCell>
        <mxCell id="EppPzP2HpiySFacWkmX8-13" value="FireIncidentSubsystem (implements Runnable)" style="swimlane;fontStyle=1;align=center;verticalAlign=top;childLayout=stackLayout;horizontal=1;startSize=26;horizontalStack=0;resizeParent=1;resizeParentMax=0;resizeLast=0;collapsible=1;marginBottom=0;whiteSpace=wrap;html=1;" vertex="1" parent="WIyWlLk6GJQsqaUBKTNV-1">
          <mxGeometry x="20" y="530" width="390" height="410" as="geometry" />
        </mxCell>
        <mxCell id="EppPzP2HpiySFacWkmX8-14" value="&lt;div&gt;+&amp;nbsp;&lt;u&gt;&amp;nbsp;AGENT_AMOUNT: HashMap&amp;lt;FireSeverity, Integer&amp;gt;&lt;/u&gt;&lt;/div&gt;&lt;div&gt;- clearZones: HashMap&amp;lt;Integer, Zone&amp;gt;&lt;/div&gt;&lt;div&gt;- fireZones: HashMap&amp;lt;Integer, Zone&amp;gt;&lt;/div&gt;&lt;div&gt;- events: ArrayList&amp;lt;SimEvent&amp;gt;&lt;/div&gt;" style="text;strokeColor=none;fillColor=none;align=left;verticalAlign=top;spacingLeft=4;spacingRight=4;overflow=hidden;rotatable=0;points=[[0,0.5],[1,0.5]];portConstraint=eastwest;whiteSpace=wrap;html=1;" vertex="1" parent="EppPzP2HpiySFacWkmX8-13">
          <mxGeometry y="26" width="390" height="84" as="geometry" />
        </mxCell>
        <mxCell id="EppPzP2HpiySFacWkmX8-15" value="" style="line;strokeWidth=1;fillColor=none;align=left;verticalAlign=middle;spacingTop=-1;spacingLeft=3;spacingRight=3;rotatable=0;labelPosition=right;points=[];portConstraint=eastwest;strokeColor=inherit;" vertex="1" parent="EppPzP2HpiySFacWkmX8-13">
          <mxGeometry y="110" width="390" height="8" as="geometry" />
        </mxCell>
        <mxCell id="EppPzP2HpiySFacWkmX8-16" value="&lt;div&gt;+ FireIncidentSubsystem()&lt;/div&gt;&lt;div&gt;- manualReqDrone(zone: Zone, eventTime: long, eventType: String): void&amp;nbsp;&lt;/div&gt;&lt;div&gt;- trackFire(zone: Zone, eventTime: long): void&amp;nbsp;&lt;/div&gt;&lt;div&gt;+ readSimEventFile(eventFile: File): void&amp;nbsp;&lt;/div&gt;&lt;div&gt;+ readSimZoneFile(zoneFile: File): void&amp;nbsp;&lt;/div&gt;&lt;div&gt;+ run(): void&amp;nbsp;&lt;/div&gt;&lt;div&gt;+ simStart(): void&amp;nbsp;&lt;/div&gt;&lt;div&gt;- hasActiveFiresOrUpcomingEvents(eventIndex: int): boolean&lt;/div&gt;&lt;div&gt;+ isEventReadyToProcess(eventIndex: int, eventIndexTime: long,currentTime: long): boolean&lt;/div&gt;&lt;div&gt;- sendEvent(event: SimEvent): void&amp;nbsp;&lt;/div&gt;&lt;div&gt;- isOnFire(zone: Zone): boolean&lt;/div&gt;&lt;div&gt;- sortEventsByTime(events: ArrayList&amp;lt;SimEvent&amp;gt;): void&amp;nbsp;&lt;/div&gt;&lt;div&gt;- timeToMillis(time: String): long&amp;nbsp;&lt;/div&gt;&lt;div&gt;+ &lt;u&gt;main(args: String[]): void&lt;/u&gt;&lt;/div&gt;&lt;div&gt;+ getClearZones(): HashMap&amp;lt;Integer, Zone&amp;gt;&lt;/div&gt;&lt;div&gt;+ getEvents(): ArrayList&amp;lt;SimEvent&amp;gt;&lt;/div&gt;&lt;div&gt;+ getFireZones(): HashMap&amp;lt;Integer, Zone&amp;gt;&amp;nbsp;&lt;/div&gt;" style="text;strokeColor=none;fillColor=none;align=left;verticalAlign=top;spacingLeft=4;spacingRight=4;overflow=hidden;rotatable=0;points=[[0,0.5],[1,0.5]];portConstraint=eastwest;whiteSpace=wrap;html=1;" vertex="1" parent="EppPzP2HpiySFacWkmX8-13">
          <mxGeometry y="118" width="390" height="292" as="geometry" />
        </mxCell>
        <mxCell id="EppPzP2HpiySFacWkmX8-21" value="&amp;lt;&amp;lt;enumeration&amp;gt;&amp;gt;&lt;br&gt;&lt;b&gt;FireSeverity&lt;/b&gt;" style="swimlane;fontStyle=0;align=center;verticalAlign=top;childLayout=stackLayout;horizontal=1;startSize=40;horizontalStack=0;resizeParent=1;resizeParentMax=0;resizeLast=0;collapsible=0;marginBottom=0;html=1;whiteSpace=wrap;" vertex="1" parent="WIyWlLk6GJQsqaUBKTNV-1">
          <mxGeometry x="490" y="475" width="160" height="110" as="geometry" />
        </mxCell>
        <mxCell id="EppPzP2HpiySFacWkmX8-22" value="&lt;span style=&quot;text-wrap-mode: nowrap;&quot;&gt;NO_FIRE,&lt;/span&gt;&lt;div&gt;&lt;span style=&quot;text-wrap-mode: nowrap;&quot;&gt;LOW,&lt;/span&gt;&lt;/div&gt;&lt;div&gt;&lt;span style=&quot;text-wrap-mode: nowrap;&quot;&gt;MODERATE,&lt;/span&gt;&lt;/div&gt;&lt;div&gt;&lt;span style=&quot;text-wrap-mode: nowrap;&quot;&gt;HIGH&lt;/span&gt;&lt;/div&gt;" style="text;html=1;strokeColor=none;fillColor=none;align=left;verticalAlign=middle;spacingLeft=4;spacingRight=4;overflow=hidden;rotatable=0;points=[[0,0.5],[1,0.5]];portConstraint=eastwest;whiteSpace=wrap;" vertex="1" parent="EppPzP2HpiySFacWkmX8-21">
          <mxGeometry y="40" width="160" height="70" as="geometry" />
        </mxCell>
        <mxCell id="EppPzP2HpiySFacWkmX8-23" value="" style="endArrow=diamondThin;endFill=1;endSize=24;html=1;rounded=0;entryX=1;entryY=0.5;entryDx=0;entryDy=0;exitX=0;exitY=0.5;exitDx=0;exitDy=0;" edge="1" parent="WIyWlLk6GJQsqaUBKTNV-1" source="EppPzP2HpiySFacWkmX8-22" target="EppPzP2HpiySFacWkmX8-16">
          <mxGeometry width="160" relative="1" as="geometry">
            <mxPoint x="580" y="730" as="sourcePoint" />
            <mxPoint x="560" y="530" as="targetPoint" />
          </mxGeometry>
        </mxCell>
      </root>
    </mxGraphModel>
  </diagram>
</mxfile>
